<svg width="56" height="56" viewBox="0 0 56 56" fill="none" xmlns="http://www.w3.org/2000/svg">
<g filter="url(#filter0_dd_571_133)">
<path d="M21.5294 44.0899C10.4 47.527 10.4 37.9523 6 36.7248M37.0588 49V40.4074C37.0588 37.9523 37.3176 36.9703 35.7647 35.4973C43.0118 34.7608 50 32.0602 50 20.767C49.9969 17.8332 48.7901 15.0156 46.6353 12.9109C47.6459 10.3625 47.5529 7.53837 46.3765 5.05478C46.3765 5.05478 43.5294 4.31827 37.3176 8.24633C32.0564 6.94661 26.5319 6.94661 21.2706 8.24633C15.0588 4.31827 12.2118 5.05478 12.2118 5.05478C11.0354 7.53837 10.9423 10.3625 11.9529 12.9109C9.79811 15.0156 8.59139 17.8332 8.58824 20.767C8.58824 32.0602 15.5765 34.7608 22.8235 35.4973C21.2706 36.9703 21.2706 38.4433 21.5294 40.4074V49" stroke="#ffffffff" stroke-width="3" stroke-linecap="round" stroke-linejoin="round"/>
</g>
<defs>
<filter id="filter0_dd_571_133" x="0.499512" y="0.5" width="55.0005" height="55" filterUnits="userSpaceOnUse" color-interpolation-filters="sRGB">
<feFlood flood-opacity="0" result="BackgroundImageFix"/>
<feColorMatrix in="SourceAlpha" type="matrix" values="0 0 0 0 0 0 0 0 0 0 0 0 0 0 0 0 0 0 127 0" result="hardAlpha"/>
<feMorphology radius="1" operator="dilate" in="SourceAlpha" result="effect1_dropShadow_571_133"/>
<feOffset dy="1"/>
<feGaussianBlur stdDeviation="1.5"/>
<feColorMatrix type="matrix" values="0 0 0 0 0 0 0 0 0 0 0 0 0 0 0 0 0 0 0.15 0"/>
<feBlend mode="normal" in2="BackgroundImageFix" result="effect1_dropShadow_571_133"/>
<feColorMatrix in="SourceAlpha" type="matrix" values="0 0 0 0 0 0 0 0 0 0 0 0 0 0 0 0 0 0 127 0" result="hardAlpha"/>
<feOffset dy="1"/>
<feGaussianBlur stdDeviation="1"/>
<feColorMatrix type="matrix" values="0 0 0 0 0 0 0 0 0 0 0 0 0 0 0 0 0 0 0.3 0"/>
<feBlend mode="normal" in2="effect1_dropShadow_571_133" result="effect2_dropShadow_571_133"/>
<feBlend mode="normal" in="SourceGraphic" in2="effect2_dropShadow_571_133" result="shape"/>
</filter>
</defs>
</svg>
