<svg width="55" height="56" viewBox="0 0 55 56" fill="none" xmlns="http://www.w3.org/2000/svg">
<g filter="url(#filter0_dd_571_135)">
<path d="M5.5 16C5.5 13.0826 6.65892 10.2847 8.72182 8.22182C10.7847 6.15892 13.5826 5 16.5 5H38.5C41.4174 5 44.2153 6.15892 46.2782 8.22182C48.3411 10.2847 49.5 13.0826 49.5 16V38C49.5 40.9174 48.3411 43.7153 46.2782 45.7782C44.2153 47.8411 41.4174 49 38.5 49H16.5C13.5826 49 10.7847 47.8411 8.72182 45.7782C6.65892 43.7153 5.5 40.9174 5.5 38V16Z" stroke="#ffffffff" stroke-width="3" stroke-linecap="round" stroke-linejoin="round"/>
<path d="M19.25 27C19.25 29.188 20.1192 31.2865 21.6664 32.8336C23.2135 34.3808 25.312 35.25 27.5 35.25C29.688 35.25 31.7865 34.3808 33.3336 32.8336C34.8808 31.2865 35.75 29.188 35.75 27C35.75 24.812 34.8808 22.7135 33.3336 21.1664C31.7865 19.6192 29.688 18.75 27.5 18.75C25.312 18.75 23.2135 19.6192 21.6664 21.1664C20.1192 22.7135 19.25 24.812 19.25 27Z" stroke="#ffffffff" stroke-width="3" stroke-linecap="round" stroke-linejoin="round"/>
<path d="M39.875 14.625V14.6534" stroke="#ffffffff" stroke-width="3" stroke-linecap="round" stroke-linejoin="round"/>
</g>
<defs>
<filter id="filter0_dd_571_135" x="0" y="0.5" width="55" height="55" filterUnits="userSpaceOnUse" color-interpolation-filters="sRGB">
<feFlood flood-opacity="0" result="BackgroundImageFix"/>
<feColorMatrix in="SourceAlpha" type="matrix" values="0 0 0 0 0 0 0 0 0 0 0 0 0 0 0 0 0 0 127 0" result="hardAlpha"/>
<feMorphology radius="1" operator="dilate" in="SourceAlpha" result="effect1_dropShadow_571_135"/>
<feOffset dy="1"/>
<feGaussianBlur stdDeviation="1.5"/>
<feColorMatrix type="matrix" values="0 0 0 0 0 0 0 0 0 0 0 0 0 0 0 0 0 0 0.15 0"/>
<feBlend mode="normal" in2="BackgroundImageFix" result="effect1_dropShadow_571_135"/>
<feColorMatrix in="SourceAlpha" type="matrix" values="0 0 0 0 0 0 0 0 0 0 0 0 0 0 0 0 0 0 127 0" result="hardAlpha"/>
<feOffset dy="1"/>
<feGaussianBlur stdDeviation="1"/>
<feColorMatrix type="matrix" values="0 0 0 0 0 0 0 0 0 0 0 0 0 0 0 0 0 0 0.3 0"/>
<feBlend mode="normal" in2="effect1_dropShadow_571_135" result="effect2_dropShadow_571_135"/>
<feBlend mode="normal" in="SourceGraphic" in2="effect2_dropShadow_571_135" result="shape"/>
</filter>
</defs>
</svg>
