<svg width="42" height="42" viewBox="0 0 42 42" fill="none" xmlns="http://www.w3.org/2000/svg">
<path d="M20.9974 0C9.40276 0 1.21182e-05 9.64018 1.21182e-05 21.5322C-0.00472501 26.0455 1.37949 30.4462 3.95702 34.1123C6.53455 37.7784 10.175 40.5245 14.364 41.9627C15.414 42.161 15.7973 41.4962 15.7973 40.9252C15.7973 40.4131 15.7789 39.0593 15.7684 37.2632C9.92776 38.5634 8.69401 34.376 8.69401 34.376C7.74113 31.8882 6.36301 31.226 6.36301 31.226C4.45463 29.891 6.50476 29.9178 6.50476 29.9178C8.61263 30.0706 9.72038 32.1375 9.72038 32.1375C11.5946 35.4269 14.637 34.4778 15.834 33.9256C16.023 32.5343 16.5664 31.5853 17.1675 31.0464C12.5055 30.5022 7.60201 28.6551 7.60201 20.4063C7.60201 18.0552 8.42101 16.1331 9.76501 14.6265C9.54713 14.0823 8.82788 11.8921 9.96976 8.92976C9.96976 8.92976 11.7338 8.35071 15.7448 11.1361C17.4582 10.6578 19.2263 10.4144 21.0026 10.4123C22.779 10.4159 24.547 10.6602 26.2605 11.1387C30.2689 8.35339 32.0302 8.93245 32.0302 8.93245C33.1747 11.8974 32.4555 14.085 32.2402 14.6292C33.5869 16.1358 34.398 18.0579 34.398 20.409C34.398 28.6793 29.4892 30.4995 24.8115 31.033C25.5649 31.6978 26.2369 33.0114 26.2369 35.0194C26.2369 37.8986 26.2106 40.2201 26.2106 40.9252C26.2106 41.5016 26.5886 42.1718 27.6544 41.96C31.8393 40.5185 35.4752 37.7712 38.0492 34.106C40.6231 30.4408 42.0051 26.0426 42 21.5322C42 9.64018 32.5972 0 20.9974 0Z" fill="black"/>
</svg>
