<svg width="71" height="37" viewBox="0 0 71 37" fill="none" xmlns="http://www.w3.org/2000/svg">
<path fill-rule="evenodd" clip-rule="evenodd" d="M27.4873 11.1H11.0673L11.4596 14.8H27.097C26.8685 18.0412 26.1753 24.9084 25.9202 28.0331L17.136 30.4344V30.4418L17.117 30.451L8.32903 27.4466L7.7273 20.35H12.0346L12.3393 24.1665L17.1246 25.9H17.1379L21.9175 24.235L22.4088 18.5H7.53688C7.46452 17.7582 6.53907 8.1252 6.37912 7.4H27.8739C27.7539 8.621 27.6302 9.8753 27.4873 11.1ZM0 0L3.1191 33.5738L17.1189 37L31.153 33.5054L34.2759 0H0Z" fill="#C36814"/>
<path d="M36.7241 0L39.8457 33.3L53.8621 37L67.8735 33.3023L71 0H36.7241Z" fill="#4285F4"/>
<path d="M64.3262 10.8895L63.932 15.0728L62.7421 27.6135L53.8622 29.9329L53.8549 29.9352L44.9799 27.6135L44.3605 21.0552H48.7086L49.0318 24.4569L53.8573 25.6872L53.8598 25.6849L58.6927 24.4546L59.3513 18.7867L44.1524 18.826L43.7215 14.9502L59.7161 14.7722L60.0392 10.6235L43.293 10.6675L43.0115 6.80792H64.713L64.3262 10.8895Z" fill="white"/>
</svg>
