<svg width="42" height="42" viewBox="0 0 42 42" fill="none" xmlns="http://www.w3.org/2000/svg">
<path d="M0.0141602 21.259C0.0148622 22.455 0.375234 23.624 1.04972 24.6181C1.7242 25.6123 2.6825 26.3869 3.80348 26.8441C4.92445 27.3013 6.15776 27.4206 7.34748 27.1869C8.5372 26.9531 9.62991 26.3768 10.4875 25.5308C11.345 24.6849 11.9289 23.6072 12.1653 22.4341C12.4017 21.261 12.28 20.0451 11.8156 18.9402C11.3512 17.8353 10.565 16.8909 9.55626 16.2265C8.54754 15.5621 7.36166 15.2075 6.14854 15.2075C4.52185 15.2103 2.96265 15.8488 1.81274 16.9832C0.662826 18.1176 0.0160372 19.6552 0.0141602 21.259ZM36.6252 0C33.2527 0 31.2434 2.6775 31.2434 7.161V34.706C31.2434 39.1895 33.2492 41.867 36.6181 41.867C39.9871 41.867 41.9999 39.1895 41.9999 34.706V25.5045V7.1785C41.9963 2.695 39.9871 0 36.6252 0Z" fill="url(#paint0_linear_789_441)"/>
<path d="M27.2003 0.598511H5.16194C3.77588 0.648286 2.46342 1.22615 1.50069 2.21053C0.537954 3.1949 0 4.50906 0 5.87651C0 7.24397 0.537954 8.55812 1.50069 9.5425C2.46342 10.5269 3.77588 11.1047 5.16194 11.1545V11.2H16.4403V20.8355C16.4403 20.916 16.4403 20.9895 16.4403 21.0665C16.4403 21.1295 16.4403 21.1925 16.4403 21.259C16.4403 23.951 15.3556 26.5326 13.4249 28.4361C11.4943 30.3396 8.87569 31.409 6.14529 31.409C6.05299 31.409 5.96069 31.409 5.86839 31.409L5.83999 31.444C5.68734 31.444 5.53469 31.4195 5.37849 31.4195C4.67385 31.42 3.97619 31.5573 3.32536 31.8235C2.67453 32.0898 2.08326 32.4799 1.58533 32.9715C0.579714 33.9642 0.0152918 35.3102 0.0162333 36.7133C0.0171748 38.1163 0.583402 39.4615 1.59035 40.453C2.5973 41.4445 3.96249 42.0009 5.38559 42C5.54534 42 5.70864 42 5.86484 41.9755V41.993H6.14529C11.7245 41.9912 17.0751 39.8069 21.0226 35.9196C24.97 32.0323 27.1918 26.7597 27.2003 21.259C27.2003 21.1995 27.2003 21.1365 27.2003 21.0665C27.2003 20.6185 27.2003 19.3655 27.2003 17.6715C27.2003 17.6715 27.2003 17.6435 27.2003 17.633C27.2003 17.6225 27.2003 1.07101 27.2003 0.598511Z" fill="url(#paint1_linear_789_441)"/>
<defs>
<linearGradient id="paint0_linear_789_441" x1="37.7748" y1="0.733331" x2="6.55961" y2="15.4721" gradientUnits="userSpaceOnUse">
<stop stop-color="#D53629"/>
<stop offset="1" stop-color="#254175"/>
</linearGradient>
<linearGradient id="paint1_linear_789_441" x1="26.4149" y1="14.0667" x2="11.9374" y2="23.8562" gradientUnits="userSpaceOnUse">
<stop stop-color="#CD362C"/>
<stop offset="1" stop-color="#264D8E"/>
</linearGradient>
</defs>
</svg>
