<svg width="32" height="43" viewBox="0 0 32 43" fill="none" xmlns="http://www.w3.org/2000/svg">
<path d="M10.0363 32.6796C10.0363 32.6796 8.42259 33.6187 11.1867 33.9361C14.535 34.3184 16.2466 34.2634 19.9359 33.5661C19.9359 33.5661 20.9084 34.174 22.2627 34.7007C13.9896 38.2452 3.53863 34.4953 10.0363 32.6796ZM9.02455 28.0532C9.02455 28.0532 7.21426 29.3942 9.98031 29.6802C13.5577 30.0492 16.3817 30.0797 21.272 29.1382C21.272 29.1382 21.9467 29.8241 23.0096 30.1981C13.0088 33.1239 1.86937 30.4286 9.02455 28.0532Z" fill="#4285F4"/>
<path d="M17.5469 20.2051C19.5866 22.553 17.0122 24.664 17.0122 24.664C17.0122 24.664 22.1881 21.9923 19.8112 18.6455C17.5906 15.5256 15.8889 13.9762 25.104 8.63184C25.104 8.63184 10.6384 12.2436 17.5469 20.2051Z" fill="#EA4335"/>
<path d="M28.4888 36.1017C28.4888 36.1017 29.6839 37.0869 27.1729 37.8486C22.3985 39.2948 7.29896 39.7311 3.10492 37.9061C1.5983 37.2501 4.42529 36.34 5.31422 36.1489C6.24148 35.9479 6.7712 35.9847 6.7712 35.9847C5.09457 34.8039 -4.06648 38.3036 2.1182 39.3076C18.9848 42.0412 32.8632 38.0761 28.4888 36.1017ZM10.8134 23.2596C10.8134 23.2596 3.13342 25.0842 8.09403 25.7475C10.1893 26.0276 14.3632 25.9633 18.2541 25.637C21.4329 25.3702 24.623 24.7996 24.623 24.7996C24.623 24.7996 23.5032 25.2802 22.6919 25.8335C14.8915 27.8851 -0.174152 26.9293 4.16338 24.8321C7.83065 23.0577 10.8134 23.2596 10.8134 23.2596ZM24.5911 30.9598C32.5197 26.8409 28.8534 22.8822 26.2948 23.4154C25.6692 23.5461 25.3881 23.6591 25.3881 23.6591C25.3881 23.6591 25.6216 23.2935 26.0653 23.1368C31.1276 21.3579 35.0199 28.3853 24.4329 31.1686C24.4329 31.1686 24.5542 31.0585 24.5911 30.9598Z" fill="#4285F4"/>
<path d="M19.8117 0C19.8117 0 24.2023 4.39257 15.6466 11.1458C8.78577 16.5644 14.082 19.6533 15.6437 23.1839C11.6388 19.5702 8.70125 16.389 10.6717 13.4288C13.5656 9.0839 21.5826 6.97631 19.8117 0Z" fill="#EA4335"/>
<path d="M11.593 42.1252C19.2018 42.6116 30.8895 41.8544 31.1662 38.254C31.1662 38.254 30.6345 39.6186 24.8769 40.7016C18.3816 41.9242 10.3694 41.7822 5.61865 40.9979C5.61865 40.9979 6.59161 41.8038 11.593 42.1252Z" fill="#4285F4"/>
</svg>
