<svg width="42" height="42" viewBox="0 0 42 42" fill="none" xmlns="http://www.w3.org/2000/svg">
<path d="M35.7 0H6.3C2.82061 0 0 2.82061 0 6.3V35.7C0 39.1794 2.82061 42 6.3 42H35.7C39.1794 42 42 39.1794 42 35.7V6.3C42 2.82061 39.1794 0 35.7 0Z" fill="#FBD605"/>
<path d="M26.5781 30.3516C27.3984 31.7461 28.5469 32.7305 30.4336 32.7305C32.0742 32.7305 33.1406 31.9102 33.1406 30.7617C33.1406 29.4492 32.0742 28.957 30.2695 28.1367L29.2852 27.7266C26.4141 26.4961 24.5273 25.0195 24.5273 21.8203C24.5273 18.8672 26.7422 16.5703 30.2695 16.5703C32.8125 16.5703 34.6172 17.4727 35.8477 19.7695L32.8125 21.7383C32.1562 20.5078 31.418 20.0156 30.2695 20.0156C29.1211 20.0156 28.3828 20.7539 28.3828 21.7383C28.3828 22.8867 29.1211 23.3789 30.8438 24.1172L31.8281 24.5273C35.1914 26.0039 37.0781 27.3984 37.0781 30.7617C37.0781 34.2891 34.2891 36.2578 30.5156 36.2578C26.8242 36.2578 24.4453 34.5352 23.2969 32.2383L26.5781 30.3516ZM12.6328 30.6797C13.2891 31.7461 13.7812 32.7305 15.1758 32.7305C16.4883 32.7305 17.3086 32.2383 17.3086 30.2695V16.6523H21.2461V30.1055C21.2461 34.207 18.8672 36.0117 15.3398 36.0117C12.1406 36.0117 10.3359 34.3711 9.43359 32.4023L12.6328 30.6797Z" fill="black"/>
</svg>
