<svg width="42" height="42" viewBox="0 0 42 42" fill="none" xmlns="http://www.w3.org/2000/svg">
<path d="M9.5435 7.18947C9.05204 7.18947 8.71871 7.25155 8.37256 7.33136V7.389H8.43239C8.66316 7.84126 9.05631 8.1738 9.34691 8.57728C9.57768 9.04284 9.77426 9.5084 10.005 9.96953L10.0649 9.90302C10.4666 9.61481 10.6631 9.15369 10.6631 8.45313C10.4922 8.24917 10.4666 8.04521 10.3213 7.84569C10.1503 7.55305 9.78281 7.41117 9.55204 7.1806L9.5435 7.18947Z" fill="white"/>
<path d="M40.6966 40.1422C39.854 39.0135 38.8528 38.0226 37.7265 37.2025C36.812 36.5685 34.812 35.6773 34.4359 34.6131L34.3804 34.5511C35.0043 34.4934 35.7479 34.2629 36.3462 34.0899C37.3162 33.8283 38.2051 33.886 39.2094 33.6288C39.6624 33.5135 40.1197 33.3672 40.5769 33.2209V32.9593C40.0641 32.4361 39.6795 31.7267 39.1496 31.2389C37.6683 29.9204 36.0909 28.7226 34.4316 27.6563C33.5342 27.0711 32.3975 26.6986 31.453 26.202C31.1111 26.0291 30.5385 25.9404 30.3419 25.6478C29.8291 25.0137 29.5299 24.1669 29.1667 23.4087C28.3462 21.808 27.5428 20.0345 26.8291 18.3452C26.3163 17.2056 26.0043 16.0706 25.3761 15.0242C22.4274 10.0759 19.2351 7.07419 14.3249 4.14338C13.2693 3.53594 12.0043 3.27434 10.6667 2.95066C9.95307 2.91519 9.23939 2.86199 8.52999 2.83095C8.05991 2.62699 7.60692 2.07275 7.20521 1.80672C5.58128 0.760319 1.37617 -1.50097 0.179588 1.49191C-0.589641 3.38075 1.32061 5.24299 1.983 6.20071C2.47445 6.8658 3.09411 7.62843 3.43599 8.37775C3.63684 8.88322 3.6924 9.40199 3.89326 9.92962C4.34625 11.211 4.77787 12.6343 5.37616 13.8359C5.68812 14.4433 6.03 15.0862 6.43171 15.6316C6.66248 15.9509 7.05564 16.0972 7.14538 16.6204C6.74368 17.2145 6.71803 18.0747 6.48726 18.7974C5.46163 22.0918 5.86334 26.1666 7.31632 28.5919C7.77359 29.3146 8.86333 30.9153 10.3206 30.3034C11.6026 29.7802 11.3206 28.1263 11.6881 26.6676C11.7736 26.3173 11.718 26.0867 11.8932 25.8517V25.9183C12.2949 26.7385 12.6967 27.5145 13.0642 28.3347C13.9445 29.7624 15.483 31.2434 16.7693 32.2321C17.4531 32.7553 17.9958 33.6598 18.8505 33.9835V33.8948H18.7864C18.6026 33.6421 18.359 33.5224 18.1283 33.314C17.5868 32.7743 17.0868 32.1917 16.6325 31.5715C15.43 29.8977 14.3623 28.1241 13.4402 26.2685C12.9702 25.3552 12.577 24.3708 12.2009 23.4707C12.03 23.1249 12.03 22.6017 11.7437 22.4243C11.3163 23.0584 10.6881 23.6126 10.3761 24.3974C9.83341 25.6522 9.77786 27.1908 9.57273 28.7959C9.45735 28.8269 9.5129 28.7959 9.45735 28.8579C8.54282 28.6318 8.23085 27.6652 7.88897 26.8538C7.03427 24.7876 6.89325 21.4666 7.63256 19.0812C7.83342 18.4737 8.68812 16.5494 8.34624 15.9642C8.16675 15.4099 7.60265 15.0951 7.29068 14.6473C6.89054 14.0647 6.54698 13.4424 6.26504 12.7895C5.58128 11.1622 5.23941 9.35765 4.49582 7.73041C4.15394 6.97664 3.55565 6.18741 3.06847 5.49572C2.52574 4.71092 1.92745 4.16112 1.49583 3.23C1.3548 2.91076 1.15395 2.38313 1.38044 2.03728C1.44027 1.80229 1.55993 1.70917 1.78215 1.6471C2.15822 1.33229 3.21377 1.74464 3.58556 1.91757C4.64112 2.35209 5.53 2.76001 6.41462 3.37189C6.81633 3.66009 7.24795 4.20989 7.76077 4.35621H8.35906C9.27359 4.56017 10.3035 4.41829 11.1582 4.67545C12.6753 5.17205 14.0428 5.89477 15.2693 6.67957C19.0338 9.12195 22.108 12.5548 24.1795 16.6292C24.5214 17.2988 24.671 17.9151 24.9829 18.6112C25.5812 20.0478 26.3206 21.4977 26.9274 22.8855C27.5257 24.2555 28.1026 25.6567 28.9616 26.7917C29.3889 27.3992 31.1069 27.7184 31.8761 28.0377C32.4445 28.2993 33.3291 28.5387 33.8419 28.8579C34.8248 29.4654 35.7821 30.1659 36.7051 30.8354C37.1752 31.168 38.5983 31.8952 38.6838 32.4804C36.3975 32.4184 34.624 32.6533 33.141 33.3007C32.7137 33.4736 32.0299 33.4736 31.9701 34.0279C32.2052 34.2584 32.2393 34.6353 32.4402 34.959C32.7821 35.5398 33.3718 36.3202 33.9188 36.7325C34.5171 37.2114 35.1154 37.6725 35.7436 38.0804C36.8547 38.7766 38.1154 39.1889 39.2051 39.8895C39.8248 40.2974 40.4573 40.8161 41.0855 41.2507C41.3974 41.4679 41.5983 41.8626 42 42V41.9158C41.8034 41.6542 41.7436 41.2773 41.5513 40.9846C41.265 40.692 40.9786 40.4304 40.6966 40.1422Z" fill="#4C82DC"/>
</svg>
