<svg width="42" height="42" viewBox="0 0 42 42" fill="none" xmlns="http://www.w3.org/2000/svg">
<path fill-rule="evenodd" clip-rule="evenodd" d="M21.8632 41.0405C22.655 41.6726 23.5832 41.9422 24.5853 41.9921C24.9997 42.013 25.4261 41.9934 25.8339 41.9217C26.4807 41.8083 27.1258 41.6658 27.7549 41.4828C29.0362 41.1096 30.1434 40.4647 30.9701 39.4231C31.4411 38.8294 31.8277 38.1874 32.076 37.4777C32.281 36.8921 32.4736 36.3005 32.6269 35.7012C32.748 35.229 32.8081 34.7415 32.8814 34.2591C32.9304 33.94 32.96 33.6176 32.9905 33.2955C33.04 32.773 33.0917 32.2514 33.1275 31.7276C33.1527 31.3633 33.1518 30.9974 33.1664 30.6327C33.1712 30.5214 33.1898 30.4109 33.2008 30.3004C33.2101 30.1976 33.264 30.1622 33.3727 30.1639C33.7544 30.1695 34.1371 30.1789 34.5184 30.1622C34.9456 30.1439 35.3759 30.126 35.7966 30.0582C36.3948 29.9613 36.9899 29.8389 37.5762 29.6913C38.269 29.516 38.9048 29.2025 39.5171 28.846C40.2294 28.4301 40.8797 27.9426 41.4059 27.3143C41.865 26.7675 42.0824 26.1336 41.9715 25.4422C41.8106 24.4377 40.9363 23.7796 39.9196 23.7348C39.5512 23.7186 39.1774 23.7561 38.8107 23.8009C38.3666 23.8555 37.9292 23.9519 37.4865 24.0155C37.1808 24.0598 36.8711 24.0795 36.5662 24.1102L36.5578 24.0718C37.1278 23.0323 37.7216 22.0048 38.2606 20.9513C38.6746 20.1426 39.028 19.3053 39.3934 18.4735C39.9987 17.0967 40.4816 15.6776 40.8819 14.2347C41.265 12.8536 41.5928 11.4575 41.6967 10.0244C41.7382 9.45238 41.7669 8.87784 41.7629 8.30501C41.7603 7.84777 41.709 7.3901 41.6618 6.93456C41.6078 6.41249 41.4444 5.91771 41.2182 5.4417C40.9204 4.81384 40.4578 4.29902 39.9713 3.81021C39.5821 3.41866 39.1535 3.06208 38.7289 2.70549C38.1232 2.19707 37.4419 1.79058 36.735 1.43016C35.9313 1.02069 35.087 0.699939 34.206 0.483261C33.6732 0.352316 33.1288 0.236725 32.5898 0.133078C32.3972 0.0955431 32.2028 0 32.0088 0H28.3558C28.2237 0 28.0929 0.0836004 27.9599 0.0976759C27.0856 0.19194 26.2214 0.359993 25.3819 0.611647C25.0682 0.705058 24.7819 0.650462 24.4837 0.62359C24.2548 0.603117 24.0299 0.546388 23.8011 0.535298C22.9302 0.493498 22.0585 0.43293 21.1872 0.441887C20.3531 0.450418 19.5273 0.583496 18.7201 0.80444C18.0445 0.990408 17.3831 1.21604 16.777 1.5594C16.5181 1.70613 16.3122 1.6784 16.044 1.60419C15.1422 1.35296 14.2347 1.11751 13.3197 0.92003C12.7493 0.796762 12.1621 0.734489 11.5794 0.67648C11.0204 0.620178 10.4585 0.586908 9.89645 0.575392C9.34771 0.563876 8.79543 0.564302 8.24889 0.611221C7.37895 0.685864 6.52578 0.856477 5.69604 1.13202C4.77484 1.43827 3.93008 1.88143 3.16881 2.46322C2.39562 3.05397 1.7753 3.77438 1.27737 4.59802C0.752043 5.46686 0.391074 6.39713 0.167511 7.37346C0.0460099 7.90279 0.0906341 8.44705 0.00712954 8.98448C-0.0184962 9.15082 0.0331971 9.31802 0.0331971 9.48523V11.8248C0.0331971 11.98 -0.0140779 12.1357 0.00624596 12.2918C0.056172 12.6667 0.0389407 13.0446 0.104772 13.417C0.208159 14.0065 0.301384 14.5938 0.426861 15.179C0.602265 15.9967 0.769716 16.8135 0.964118 17.6273C1.1055 18.2198 1.25881 18.8088 1.42715 19.3944C1.68341 20.2893 1.93348 21.1854 2.22376 22.0696C2.49371 22.8916 2.80122 23.7015 3.10828 24.512C3.53332 25.6329 4.04053 26.7176 4.65025 27.7566C5.17823 28.657 5.78043 29.5003 6.58897 30.1934C7.12225 30.6506 7.71473 31.0016 8.40442 31.1774C8.94697 31.3147 9.49925 31.3314 10.0537 31.2217C10.6975 31.0946 11.2679 30.8268 11.7746 30.4263C11.833 30.3806 11.8961 30.3452 11.9655 30.4297C12.228 30.7504 12.5788 30.9645 12.9459 31.1492C13.9365 31.6483 15.0159 31.798 16.112 31.8586C16.378 31.8731 16.6457 31.8364 16.913 31.8295C17.4348 31.8155 17.9412 31.7174 18.4391 31.5783C18.7007 31.5054 18.9556 31.4124 19.2216 31.3262C19.2353 31.5996 19.2529 31.8624 19.2618 32.1256L19.2984 33.56C19.3055 33.7784 19.3143 33.9968 19.3351 34.2143C19.389 34.7748 19.4416 35.3352 19.511 35.894C19.5587 36.2791 19.609 36.6668 19.7027 37.0431C19.8918 37.8014 20.1472 38.5398 20.4724 39.2559C20.7909 39.958 21.25 40.5513 21.8632 41.0405ZM20.2766 33.8884C20.2453 33.2149 20.2219 32.541 20.2064 31.8671C20.1878 31.0388 20.1816 30.21 20.1697 29.3817L20.1675 29.3501C19.7314 29.603 19.3015 29.8794 18.8469 30.1076C18.3136 30.3751 17.7348 30.5299 17.1353 30.5738C16.6656 30.608 16.1889 30.6391 15.7214 30.6033C14.9544 30.5431 14.1874 30.4275 13.5008 30.0624C13.2225 29.9144 12.9318 29.734 12.7396 29.4981C12.2796 28.9313 12.5001 28.2151 13.1938 27.8705C13.6732 27.6316 14.1963 27.5322 14.7159 27.4162C15.167 27.3156 15.6167 27.2008 16.0572 27.0622C16.4929 26.9244 16.7677 26.5832 17.0394 26.2484L17.4697 25.7144L16.9524 25.6623C16.439 25.6163 15.949 25.4793 15.4807 25.2789C15.0804 25.1078 15.0742 25.0891 14.7799 25.397C14.2895 25.911 13.8123 26.4378 13.3312 26.9607C12.9773 27.3454 12.626 27.7323 12.273 28.1183C11.9249 28.5 11.5979 28.9031 11.2219 29.258C10.6643 29.7852 9.99188 30.1021 9.18953 30.0663C8.67481 30.0432 8.20383 29.8692 7.77968 29.5847C6.90531 28.9969 6.31636 28.1737 5.77955 27.31C5.09251 26.2027 4.56453 25.0234 4.11343 23.812C3.80106 22.9743 3.48693 22.1362 3.21476 21.2865C2.9183 20.3631 2.65807 19.429 2.40225 18.494C2.20873 17.789 2.03731 17.0779 1.87383 16.3656C1.68782 15.5556 1.50933 14.7435 1.3516 13.928C1.24512 13.3773 1.1837 12.8186 1.09755 12.2645C0.981349 11.5168 0.960142 10.7631 1.00256 10.0128C1.04011 9.33679 1.14041 8.66287 1.24026 7.99151C1.37855 7.06252 1.69578 6.186 2.15174 5.3581C2.43141 4.85095 2.77736 4.38987 3.17809 3.96163C3.83641 3.25828 4.63302 2.75028 5.51931 2.36853C6.13831 2.10195 6.79265 1.942 7.45936 1.81617C8.44904 1.63021 9.44756 1.63788 10.4461 1.6575C10.8826 1.66646 11.3178 1.74281 11.7539 1.78504C12.6932 1.87504 13.6135 2.06612 14.5223 2.30114C15.1851 2.47261 15.8341 2.69526 16.4907 2.88805C16.556 2.90724 16.6528 2.90554 16.7072 2.87184C17.5974 2.31053 18.5699 1.9403 19.6051 1.72831C19.9978 1.64812 20.4034 1.61272 20.8051 1.58798C21.2928 1.55855 21.7855 1.5304 22.2724 1.55812C22.8578 1.59054 23.4414 1.67371 24.0233 1.75049C24.3061 1.78802 24.5818 1.88229 24.8645 1.90788C25.0006 1.92025 25.1442 1.82513 25.2874 1.79272C26.0181 1.62935 26.7458 1.44808 27.4832 1.31969C28.032 1.22415 28.5931 1.17894 29.1507 1.14822C29.7736 1.11368 30.4001 1.08851 31.0222 1.11751C31.8087 1.1542 32.5894 1.26211 33.3599 1.43528C34.3151 1.64983 35.2306 1.9612 36.1014 2.3937C36.7522 2.71744 37.3703 3.09193 37.9275 3.55259C38.2924 3.855 38.6662 4.15315 38.9953 4.49011C39.4018 4.90555 39.8163 5.32056 40.0716 5.85245C40.2638 6.25382 40.4008 6.66926 40.4388 7.10816C40.4856 7.65455 40.5426 8.20264 40.5378 8.74988C40.5329 9.27281 40.4587 9.79531 40.4065 10.3174C40.2868 11.5066 40.0195 12.6701 39.6939 13.8184C39.4257 14.7665 39.1111 15.7045 38.7709 16.6318C38.4577 17.4861 38.0958 18.3247 37.7304 19.1603C37.4605 19.7779 37.1693 20.3891 36.8538 20.9862C36.2556 22.1174 35.6335 23.2371 34.9138 24.3034C34.7896 24.4872 34.6717 24.6757 34.5506 24.8638C34.8647 25.0682 35.2204 25.1402 35.5783 25.1778C35.9189 25.2132 36.2662 25.2349 36.6064 25.2102C37.1512 25.171 37.6942 25.0959 38.2359 25.0229C38.7722 24.9504 39.2976 24.8033 39.849 24.8421C40.3986 24.8809 40.7927 25.2844 40.7551 25.7817C40.7313 26.0965 40.5815 26.3665 40.365 26.5973C39.3422 27.6866 38.0582 28.3469 36.5896 28.6724C36.0316 28.796 35.4564 28.8596 34.8851 28.9112C34.3986 28.9547 33.906 28.962 33.4178 28.9445C33.059 28.9317 32.7033 28.8524 32.3366 28.8012C32.2995 29.1249 32.2646 29.4623 32.2222 29.7984L32.0512 31.0878C31.9995 31.4964 31.9593 31.9067 31.9059 32.3154C31.8537 32.712 31.7888 33.1066 31.734 33.5028C31.6832 33.8718 31.6456 34.2429 31.5882 34.6114C31.5011 35.1761 31.4176 35.7421 31.3032 36.3026C31.1662 36.9722 30.9568 37.6206 30.6135 38.225C30.1956 38.9624 29.6031 39.5242 28.8484 39.9401C28.0708 40.3687 27.2203 40.5918 26.3592 40.7786C25.7486 40.9113 25.1208 40.9326 24.5027 40.8784C23.4313 40.785 22.5167 40.3427 21.8252 39.5404C21.1656 38.7748 20.7189 37.8978 20.5594 36.9044C20.4825 36.4323 20.4277 35.9562 20.3844 35.4802C20.335 34.9501 20.3023 34.4194 20.2766 33.8884ZM21.481 27.0835C21.4877 27.4375 21.4497 27.7916 21.4514 28.1456C21.459 29.7933 21.4713 31.4414 21.4859 33.0895C21.4886 33.3587 21.5023 33.6287 21.5221 33.8974C21.5641 34.4604 21.6056 35.0238 21.6622 35.5852C21.7028 35.984 21.7581 36.3815 21.823 36.7773C21.9158 37.3374 22.18 37.8364 22.4796 38.3137C22.7376 38.724 23.0738 39.0721 23.5161 39.3126C24.2681 39.7208 25.077 39.7549 25.8927 39.6048C26.4436 39.5037 26.9853 39.3404 27.5199 39.1719C28.0474 39.006 28.5241 38.7351 28.924 38.361C29.2991 38.0104 29.5651 37.5826 29.7445 37.1104C30.0922 36.1951 30.2013 35.2307 30.3449 34.2744C30.3988 33.9161 30.4456 33.557 30.4947 33.1983C30.5508 32.7901 30.6073 32.3823 30.6612 31.9741C30.7019 31.6696 30.7381 31.3655 30.7766 31.0614C30.8318 30.6246 30.8897 30.1882 30.9422 29.7515C30.9824 29.4137 31.016 29.0746 31.0523 28.7359C31.0982 28.303 31.1472 27.8713 31.1875 27.4375C31.2175 27.1091 31.2051 26.7743 31.2657 26.4514C31.3766 25.8598 31.6664 25.3565 32.2098 25.0306C32.4369 24.895 32.6941 24.8054 32.9459 24.6902L32.9026 24.6267C32.6698 24.3349 32.4312 24.0479 32.2028 23.7527C31.844 23.2895 31.586 22.773 31.3266 22.2539C31.081 21.7617 30.7805 21.2959 30.5221 20.8092C30.071 19.9604 29.6115 19.1138 29.1957 18.2492C28.673 17.1615 28.2613 16.0363 28.1318 14.8318C28.0766 14.3225 28.0624 13.8132 28.1698 13.3087C28.3408 12.5025 28.7764 11.8721 29.5099 11.4396C30.1903 11.0387 30.948 10.909 31.7243 10.8685C32.2059 10.8433 32.6905 10.8638 33.1902 10.8638L33.1739 10.7823C32.8628 10.1545 32.5726 9.51594 32.2319 8.90344C31.7521 8.03843 31.1371 7.25873 30.4531 6.5349C29.9468 5.9996 29.3976 5.50312 28.7963 5.06337C28.2051 4.63129 27.5822 4.24528 26.9172 3.93007C26.1246 3.55344 25.2984 3.26255 24.4324 3.077C23.5996 2.89871 22.7623 2.78952 21.9078 2.78056C21.1797 2.77289 20.456 2.8053 19.7465 2.96355C18.6755 3.20283 17.696 3.62851 16.8446 4.31779C16.3687 4.70295 15.953 5.13502 15.5902 5.61615C15.163 6.18131 14.8192 6.79295 14.525 7.43318C14.1212 8.31226 13.8441 9.22632 13.6542 10.1664C13.5596 10.6356 13.4854 11.1078 13.4098 11.5799C13.3833 11.7458 13.3816 11.9143 13.3656 12.1041L13.6891 11.9416L14.0045 11.8051C15.0724 11.3338 16.1783 11.0306 17.3668 11.0651C17.8722 11.0796 18.3547 11.1764 18.8045 11.3901C19.666 11.8004 20.1697 12.4978 20.3889 13.3799C20.54 13.989 20.6438 14.61 20.7445 15.2298C20.8232 15.7135 20.904 16.2023 20.9129 16.6902C20.9257 17.4034 20.8886 18.1182 20.8484 18.831C20.8143 19.4384 20.6831 20.0359 20.4631 20.6028C20.0637 21.6333 19.6183 22.6472 19.2026 23.6717C19.0652 24.0104 18.9596 24.3605 18.8301 24.7329L19.355 24.7333C19.4186 24.7346 19.4836 24.7363 19.545 24.7504C20.0226 24.8592 20.4375 25.0682 20.7772 25.423C21.2314 25.8939 21.4691 26.445 21.481 27.0835ZM12.3587 22.1976C12.0875 21.5774 11.9244 20.9304 11.8754 20.262C11.8294 19.6333 11.9067 19.008 11.9739 18.3818C12.0384 17.7757 12.0932 17.1666 12.1118 16.5584C12.1431 15.5573 12.0733 14.5588 12.0238 13.5586C11.9942 12.9632 12.0658 12.3605 12.1206 11.7638C12.1701 11.2263 12.2319 10.6876 12.3375 10.1579C12.5138 9.26897 12.7484 8.39288 13.082 7.54365C13.3979 6.73836 13.762 5.95482 14.2745 5.24891C14.6266 4.76437 15.0251 4.31267 15.4082 3.83922L15.2942 3.79998C14.0469 3.4178 12.7789 3.11838 11.4742 2.98829C10.8579 2.92644 10.2389 2.89061 9.62075 2.85478C9.43077 2.84412 9.23814 2.86886 9.04771 2.88634C8.57628 2.93028 8.09867 2.94734 7.63476 3.03264C6.84522 3.17767 6.0875 3.42164 5.38632 3.81874C4.75628 4.17532 4.22742 4.63555 3.78427 5.18834C3.29518 5.79871 2.96513 6.48884 2.72876 7.22418C2.44953 8.09217 2.3161 8.98576 2.28031 9.88702C2.24894 10.6774 2.23347 11.472 2.37486 12.2594C2.47957 12.845 2.54982 13.4375 2.66558 14.0214C2.82375 14.8169 2.99341 15.6111 3.18958 16.3985C3.46925 17.5262 3.74937 18.6548 4.08118 19.7689C4.39841 20.8357 4.75584 21.893 5.14465 22.9381C5.46188 23.7907 5.82903 24.6275 6.21563 25.4529C6.46746 25.9907 6.77232 26.5086 7.0922 27.0119C7.43196 27.5467 7.819 28.0543 8.343 28.4425C9.00529 28.9321 9.51737 29.0085 10.1907 28.4706C10.4788 28.2407 10.7222 27.9558 10.9732 27.6849C11.3713 27.255 11.7556 26.8122 12.1524 26.3802C12.6574 25.8304 13.1686 25.2861 13.6762 24.738C13.7836 24.6224 13.8874 24.503 13.9917 24.3861L13.8181 24.2398C13.1885 23.6546 12.6998 22.9764 12.3587 22.1976ZM31.5078 5.81747C31.9204 6.28453 32.3198 6.76523 32.6883 7.26513C33.4014 8.2325 33.9714 9.27665 34.3916 10.3942C34.5771 10.8868 34.7256 11.3841 34.6593 11.9229C34.6134 12.3003 34.6164 12.6829 34.5824 13.0626C34.5537 13.3782 34.5016 13.6921 34.4596 14.0069C34.396 14.4812 34.3041 14.9546 34.2767 15.4311C34.2502 15.8849 34.278 16.343 34.3076 16.7973C34.3372 17.2592 34.4017 17.719 34.4455 18.1797C34.4949 18.703 34.5621 19.2251 34.5771 19.7493C34.5895 20.1792 34.5497 20.6113 34.5113 21.0413C34.4649 21.5586 34.3293 22.0594 34.1269 22.5392C33.9842 22.8779 33.8141 23.2055 33.6537 23.5442L33.7182 23.6098L33.8163 23.6832L33.9157 23.5126C34.7499 22.2428 35.4921 20.9244 36.1341 19.5557C36.5485 18.6744 36.9347 17.7804 37.3067 16.8813C37.8859 15.4818 38.345 14.0436 38.6989 12.5759C38.8579 11.9173 38.9799 11.2485 39.0877 10.5797C39.1721 10.0568 39.2419 9.52788 39.2578 9.00026C39.2741 8.44065 39.2423 7.87677 39.1889 7.31887C39.1487 6.89745 39.0409 6.47348 38.7678 6.13012C38.3278 5.57862 37.8532 5.05142 37.2696 4.63385C36.7778 4.28281 36.2874 3.92154 35.7603 3.62638C34.924 3.15762 34.0187 2.84625 33.0727 2.63384C32.1489 2.42612 31.214 2.33654 30.2729 2.31735C29.718 2.30583 29.1604 2.36342 28.6068 2.41417C28.1049 2.45939 27.606 2.53701 27.101 2.60099C27.6432 2.8953 28.1782 3.15719 28.6819 3.46557C29.7423 4.1139 30.6931 4.89403 31.5078 5.81747ZM17.7317 23.972C18.0742 22.9142 18.5412 21.9033 18.9931 20.8873C19.3603 20.0628 19.5604 19.1948 19.6272 18.3025C19.6603 17.8627 19.6515 17.4174 19.6289 16.9764C19.6037 16.4868 19.5635 15.995 19.4893 15.51C19.3943 14.8898 19.2865 14.2692 19.1345 13.6606C18.9697 13.002 18.5544 12.543 17.8422 12.3737C17.4088 12.2709 16.9775 12.2752 16.5388 12.3421C15.4683 12.5046 14.4883 12.8855 13.5755 13.4434C13.3917 13.5556 13.2901 13.6465 13.3223 13.9003C13.3895 14.4394 13.4041 14.9871 13.4014 15.5309C13.3979 16.3008 13.3639 17.0707 13.3338 17.8401C13.3241 18.0905 13.2866 18.3405 13.2583 18.59C13.2159 18.9722 13.1332 19.3539 13.1359 19.7356C13.1385 20.1289 13.1801 20.5311 13.279 20.912C13.5932 22.12 14.2577 23.1078 15.3477 23.8052C16.0179 24.2343 16.7593 24.4501 17.5736 24.4915C17.6275 24.3111 17.6774 24.1409 17.7317 23.972ZM16.4522 13.6119C16.3086 13.3215 16.3908 13.0805 16.7231 12.9687C16.8044 12.9418 16.8874 12.912 16.9714 12.9043C17.0876 12.8932 17.2046 12.9013 17.3217 12.9013C17.7437 12.9039 18.1493 12.9606 18.497 13.2191C18.7205 13.3854 18.7806 13.6051 18.6357 13.832C18.4303 14.1532 18.1179 14.3144 17.7335 14.3451C17.1287 14.3933 16.7041 14.1212 16.4522 13.6119ZM33.2304 13.5057L33.3679 12.3434C33.3877 12.1882 33.3033 12.1455 33.1681 12.1417C32.7427 12.1306 32.3176 12.1156 31.8922 12.1088C31.4132 12.1003 30.9462 12.1745 30.5026 12.3502C30.0104 12.546 29.6358 12.8591 29.4825 13.3765C29.368 13.7621 29.3375 14.1472 29.3782 14.5503C29.4396 15.1649 29.581 15.7612 29.8037 16.3332C30.1015 17.098 30.4125 17.8623 30.785 18.5951C31.2891 19.5868 31.859 20.5473 32.3945 21.5241C32.5372 21.7847 32.6583 22.0573 32.8072 22.3614C33.1195 21.7233 33.2715 21.0843 33.2888 20.4258C33.3033 19.8709 33.2578 19.3147 33.2243 18.7597C33.2035 18.4202 33.1536 18.0824 33.1195 17.7437C33.0723 17.272 32.9998 16.7998 32.9883 16.3268C32.9773 15.8457 33.0126 15.362 33.055 14.8813C33.0948 14.4215 33.1734 13.9647 33.2304 13.5057ZM32.2721 13.1329C32.114 13.5539 31.7764 13.7919 31.3381 13.8614C30.9299 13.9267 30.572 13.7813 30.306 13.4665C30.1165 13.2425 30.1889 12.9777 30.473 12.8258C30.7991 12.6518 31.1574 12.6079 31.5802 12.5814C31.6956 12.6015 31.8679 12.619 32.0322 12.6637C32.2704 12.7286 32.3587 12.9026 32.2721 13.1329ZM19.6369 26.1008C19.4036 25.9165 19.0943 25.9059 18.8725 26.108C18.5968 26.3597 18.3543 26.6472 18.1117 26.9304C17.832 27.258 17.5687 27.5983 17.2082 27.8521C16.6829 28.2211 16.0692 28.3738 15.4533 28.5184C14.9637 28.6335 14.4715 28.7406 13.9807 28.8506L13.9745 28.9121C14.1203 28.9769 14.2612 29.0584 14.4137 29.1049C15.1625 29.3335 15.9247 29.4478 16.7164 29.383C17.2873 29.3356 17.8316 29.2153 18.3472 28.9795C19.0572 28.6549 19.6037 28.14 20.0681 27.542C20.1459 27.4422 20.1812 27.2947 20.19 27.1658C20.2214 26.7112 19.9824 26.3729 19.6369 26.1008ZM33.3091 25.9037C32.9419 26.0227 32.6433 26.204 32.5545 26.5875C32.4939 26.8468 32.4718 27.1151 32.4484 27.3808C32.444 27.4277 32.5045 27.5139 32.5505 27.5258C32.8332 27.5979 33.1178 27.6828 33.4067 27.708C33.7624 27.7391 34.1238 27.7293 34.4817 27.7122C34.8678 27.6935 35.2566 27.6691 35.6375 27.6077C36.534 27.4619 37.4021 27.2256 38.1727 26.7342C38.451 26.5572 38.7258 26.3763 39.0024 26.1963L38.9794 26.1584C38.6847 26.2006 38.3909 26.2522 38.0949 26.2825C37.4923 26.3448 36.8892 26.4105 36.2843 26.4441C35.9923 26.4604 35.6963 26.4062 35.402 26.3832C34.908 26.3443 34.4256 26.2386 34.0081 25.9835C33.7673 25.8368 33.5658 25.8206 33.3091 25.9037Z" fill="#4285F4"/>
</svg>
