<svg width="47" height="43" viewBox="0 0 47 43" fill="none" xmlns="http://www.w3.org/2000/svg">
<path d="M23.5 25.8757C25.8714 25.8757 27.7937 23.9061 27.7937 21.4764C27.7937 19.0467 25.8714 17.077 23.5 17.077C21.1287 17.077 19.2063 19.0467 19.2063 21.4764C19.2063 23.9061 21.1287 25.8757 23.5 25.8757Z" fill="#4285F4"/>
<path d="M23.5 37.6546C26.8703 41.0132 30.1945 43 32.8723 43C33.7495 43 34.5806 42.8108 35.2731 42.385C37.6739 40.9659 38.5511 37.418 37.72 32.3564C37.5815 31.4576 37.3969 30.5589 37.166 29.6128C38.0894 29.3289 38.9204 29.0451 39.7515 28.7613C44.4145 26.9164 47 24.3619 47 21.571C47 18.7327 44.4145 16.1782 39.7515 14.3806C38.9204 14.0495 38.0894 13.7657 37.166 13.5292C37.3969 12.5831 37.5815 11.6843 37.72 10.7855C38.5049 5.62926 37.6277 2.0341 35.2269 0.614962C34.5344 0.189219 33.7033 0 32.8261 0C30.1945 0 26.8242 1.9868 23.4538 5.34543C20.1297 1.9868 16.8055 0 14.1277 0C13.2505 0 12.4194 0.189219 11.7269 0.614962C9.32613 2.0341 8.44892 5.58196 9.27996 10.6436C9.41847 11.5424 9.60314 12.4411 9.83399 13.3872C8.91061 13.6711 8.07957 13.9549 7.24853 14.2387C2.58546 16.0836 0 18.6381 0 21.429C0 24.2673 2.58546 26.8218 7.24853 28.6194C8.07957 28.9505 8.91061 29.2343 9.83399 29.4708C9.60314 30.4169 9.41847 31.3157 9.27996 32.2145C8.49509 37.2761 9.3723 40.8713 11.7269 42.2431C12.4194 42.6689 13.2505 42.8581 14.1277 42.8581C16.8055 42.9527 20.1297 40.9659 23.5 37.6546ZM20.9145 31.2684C21.7456 31.3157 22.6228 31.3157 23.5 31.3157C24.3772 31.3157 25.2544 31.3157 26.0855 31.2684C25.2544 32.4037 24.3772 33.4444 23.5 34.4378C22.6228 33.4444 21.7456 32.4037 20.9145 31.2684ZM15.1896 26.396C15.6513 27.2002 16.0668 27.9571 16.5747 28.714C15.1434 28.5248 13.8045 28.2882 12.5118 28.0044C12.9273 26.7272 13.389 25.4026 13.943 24.0781C14.3124 24.835 14.7279 25.6392 15.1896 26.396ZM12.5118 14.9956C13.8045 14.7118 15.1434 14.4752 16.5747 14.286C16.113 15.0429 15.6513 15.7998 15.1896 16.604C14.7279 17.4081 14.3124 18.165 13.943 18.9692C13.3428 17.5974 12.8811 16.2728 12.5118 14.9956ZM15.0511 21.4763C15.6513 20.1991 16.2976 18.9219 17.0363 17.6447C17.7289 16.4147 18.5138 15.1848 19.2986 13.9549C20.6837 13.8603 22.0688 13.813 23.5 13.813C24.9774 13.813 26.3625 13.8603 27.7014 13.9549C28.5324 15.1848 29.2711 16.4147 29.9637 17.6447C30.7024 18.9219 31.3487 20.1991 31.9489 21.4763C31.3487 22.7536 30.7024 24.0308 29.9637 25.308C29.2711 26.538 28.4862 27.7679 27.7014 28.9978C26.3163 29.0924 24.9312 29.1397 23.5 29.1397C22.0226 29.1397 20.6375 29.0924 19.2986 28.9978C18.4676 27.7679 17.7289 26.538 17.0363 25.308C16.2976 24.0308 15.6513 22.7536 15.0511 21.4763ZM33.1031 18.9219L31.8566 16.5567C31.3949 15.7525 30.9794 14.9956 30.4715 14.2387C31.9027 14.4279 33.2416 14.6645 34.5344 14.9483C34.1189 16.2728 33.6572 17.5974 33.1031 18.9219ZM33.1031 24.0308C33.6572 25.3553 34.1189 26.6799 34.5344 27.9571C33.2416 28.2409 31.9027 28.4774 30.4715 28.6667C30.9332 27.9098 31.3949 27.1529 31.8566 26.3487C32.2721 25.6392 32.6876 24.835 33.1031 24.0308ZM34.165 40.4455C33.7957 40.6821 33.334 40.7767 32.8261 40.7767C30.5638 40.7767 27.7475 38.8845 24.9774 36.0462C26.3163 34.5798 27.609 32.9241 28.9018 31.0792C31.0717 30.89 33.1493 30.5589 35.0884 30.0858C35.3193 30.9373 35.4578 31.7888 35.5963 32.6403C36.2426 36.6612 35.7348 39.5468 34.165 40.4455ZM36.5658 15.516C41.7367 17.0297 44.8301 19.3476 44.8301 21.4763C44.8301 23.3212 42.7063 25.1661 38.9666 26.6326C38.2279 26.9164 37.3969 27.2002 36.5658 27.4367C35.9656 25.4973 35.2269 23.5105 34.3035 21.4763C35.2269 19.4422 36.0118 17.4554 36.5658 15.516ZM32.8723 2.17602C33.3802 2.17602 33.7957 2.27063 34.2112 2.50715C35.7348 3.40594 36.2888 6.24422 35.6424 10.3124C35.5039 11.1166 35.3192 11.9681 35.1346 12.8669C33.1955 12.4411 31.1179 12.11 28.9479 11.8735C27.7014 10.0286 26.3625 8.37294 25.0236 6.90649C27.7937 4.11551 30.61 2.17602 32.8723 2.17602ZM26.0855 11.6843C25.2544 11.637 24.3772 11.637 23.5 11.637C22.6228 11.637 21.7456 11.637 20.9145 11.6843C21.7456 10.549 22.6228 9.50825 23.5 8.51485C24.3772 9.50825 25.2544 10.5963 26.0855 11.6843ZM12.835 2.50715C13.2043 2.27063 13.666 2.17602 14.1739 2.17602C16.4361 2.17602 19.2525 4.06821 22.0226 6.90649C20.6837 8.37294 19.391 10.0286 18.0982 11.8735C15.9283 12.0627 13.8507 12.3938 11.9116 12.8669C11.6807 12.0154 11.5422 11.1639 11.4037 10.3124C10.7574 6.29153 11.2652 3.45325 12.835 2.50715ZM10.4342 27.4367C5.26326 25.923 2.16994 23.6051 2.16994 21.4763C2.16994 19.6315 4.29371 17.7866 8.0334 16.3201C8.7721 16.0363 9.60314 15.7525 10.4342 15.516C11.0344 17.4554 11.7731 19.4422 12.6965 21.4763C11.7731 23.5105 10.9882 25.5446 10.4342 27.4367ZM11.4037 32.6403C11.5422 31.8361 11.7269 30.9846 11.9116 30.0858C13.8507 30.5116 15.9283 30.8427 18.0982 31.0792C19.3448 32.9241 20.6837 34.5798 22.0226 36.0462C19.2525 38.8372 16.4361 40.7767 14.1739 40.7767C13.666 40.7767 13.2505 40.6821 12.835 40.4455C11.2652 39.5468 10.7574 36.6612 11.4037 32.6403Z" fill="#4285F4"/>
</svg>
