<svg width="36" height="37" viewBox="0 0 36 37" fill="none" xmlns="http://www.w3.org/2000/svg">
<path d="M32.6787 26.2954C28.2468 32.2926 18.7833 30.2686 12.7143 30.5585C12.7143 30.5585 11.6391 30.6205 10.5584 30.801C10.5584 30.801 10.9677 30.6242 11.4901 30.44C15.7515 28.943 17.7655 28.6421 20.3558 27.291C25.2203 24.7601 30.0634 19.2443 31.0488 13.5151C29.1964 19.0254 23.5635 23.7681 18.4351 25.6937C14.9258 27.0102 8.57671 28.2902 8.57492 28.2902C8.48866 28.2453 8.40309 28.1991 8.31822 28.1516C4.00115 26.0182 3.8755 16.5183 11.718 13.4568C15.1573 12.1147 18.4441 12.8514 22.1616 11.9524C26.125 10.9952 30.7168 7.97741 32.5818 4.03156C34.673 10.3369 37.1861 20.1979 32.6787 26.2954ZM32.7541 2.08051C32.2527 3.30173 31.611 4.4585 30.8424 5.52675C29.1715 3.77746 27.1718 2.38687 24.9619 1.4375C22.7519 0.488118 20.3768 -0.000714141 17.9773 7.83058e-07C8.06333 7.83058e-07 1.96429e-06 8.19075 1.96429e-06 18.2596C-0.00115566 20.7712 0.509373 23.2559 1.49947 25.5574C2.48957 27.8588 3.93782 29.9272 5.75311 31.6325L6.14802 31.9862C5.86018 31.6934 5.69862 31.2964 5.69887 30.8825C5.69912 30.4687 5.86116 30.0719 6.14937 29.7793C6.43757 29.4868 6.82833 29.3226 7.23574 29.3226C7.64315 29.3227 8.03385 29.4872 8.32193 29.7798C8.61002 30.0724 8.7719 30.4693 8.77198 30.8831C8.77207 31.297 8.61035 31.6939 8.32238 31.9867C8.03442 32.2795 7.64379 32.4441 7.23638 32.4443C6.82897 32.4446 6.43814 32.2805 6.14982 31.9881L6.41728 32.2288C9.64908 35.0042 13.7453 36.5252 17.9773 36.5211C27.4516 36.5211 35.2331 29.0305 35.899 19.5779C36.3909 14.9483 35.0446 9.06964 32.7541 2.08051Z" fill="#34A853"/>
</svg>
