<svg width="58" height="44" viewBox="0 0 58 44" fill="none" xmlns="http://www.w3.org/2000/svg">
<path d="M47.1079 12.6836C44.9668 11.7534 43.0769 10.0808 41.6548 7.85765C40.0876 5.38068 38.0919 3.38874 35.8206 2.03418C33.5493 0.679629 31.0624 -0.00163802 28.5503 0.0424958C25.171 -0.259394 21.8255 1.05539 19.1801 3.72501C16.5347 6.39463 14.7834 10.2232 14.2751 14.4483C15.2763 12.3351 16.7831 10.6771 18.5788 9.71282C20.3744 8.74854 22.3663 8.52772 24.2677 9.08214C26.4053 10.0394 28.2921 11.7218 29.7208 13.9441C31.2967 16.4013 33.2961 18.3726 35.567 19.7082C37.8378 21.0437 40.3203 21.7083 42.8254 21.6512C46.2047 21.9531 49.5502 20.6383 52.1956 17.9687C54.841 15.2991 56.5922 11.4705 57.1005 7.2454C56.1175 9.38384 54.6155 11.0669 52.8162 12.0461C51.0169 13.0254 49.0156 13.2488 47.1079 12.6836ZM9.99259 30.6188C12.1337 31.549 14.0237 33.2216 15.4457 35.4448C17.013 37.9217 19.0086 39.9137 21.2799 41.2682C23.5513 42.6228 26.0381 43.304 28.5503 43.2599C31.9296 43.5618 35.275 42.247 37.9204 39.5774C40.5658 36.9078 42.3171 33.0792 42.8254 28.8541C41.8242 30.9673 40.3174 32.6253 38.5217 33.5896C36.7261 34.5539 34.7343 34.7747 32.8328 34.2203C30.6953 33.263 28.8084 31.5807 27.3797 29.3583C25.7996 26.9072 23.7994 24.9402 21.5295 23.6052C19.2596 22.2703 16.7793 21.6022 14.2751 21.6512C10.8958 21.3493 7.55036 22.6641 4.90495 25.3337C2.25955 28.0033 0.508315 31.8319 0 36.057C0.983005 33.9186 2.48504 32.2355 4.28435 31.2563C6.08366 30.277 8.08489 30.0536 9.99259 30.6188Z" fill="#4285F4"/>
</svg>
