<svg width="42" height="42" viewBox="0 0 42 42" fill="none" xmlns="http://www.w3.org/2000/svg">
<path d="M0 21V35C0 38.866 3.13401 42 7 42H35C38.866 42 42 38.866 42 35V7C42 3.13401 38.866 0 35 0H7C3.13401 0 0 3.13401 0 7V21ZM33.8453 19.3234C33.8453 19.3217 33.8469 19.3204 33.8486 19.3208C34.8533 19.5546 35.7663 20.0804 36.4728 20.832C37.2372 21.6278 37.0228 22.532 36.1044 23.1437C35.5867 23.4885 35.0142 23.8605 34.561 24.1416C34.5206 24.1685 34.3594 23.9938 34.1813 23.7283C33.9795 23.3801 33.6928 23.0887 33.3479 22.8813C33.003 22.6739 32.6111 22.5572 32.209 22.5422C30.9355 22.4549 30.1157 23.1235 30.1224 24.2222C30.1119 24.4958 30.1745 24.7672 30.3038 25.0085C30.5827 25.5898 31.1035 25.9358 32.7365 26.6414C35.7437 27.935 37.0306 28.7885 37.8302 30.0014C38.724 31.3454 38.9222 33.516 38.3174 35.1221C37.6454 36.8693 35.999 38.0554 33.6706 38.4485C32.6071 38.5703 31.5325 38.559 30.4718 38.4149C28.853 38.1523 27.3598 37.3815 26.208 36.2141C25.9601 35.9403 25.5613 35.3842 25.3198 34.9996C25.1591 34.7436 25.2361 34.4922 25.5024 34.3493L27.048 33.4622L27.8648 32.989C28.0841 32.8619 28.3643 32.9263 28.5062 33.1363C28.9315 33.7447 29.4728 34.2631 30.0989 34.6618C31.4429 35.3674 33.2774 35.2699 34.1846 34.4534C34.4892 34.1542 34.6793 33.7577 34.7216 33.3329C34.764 32.908 34.656 32.4818 34.4165 32.1283C34.0805 31.6613 33.4085 31.2682 31.5302 30.4483C29.363 29.5142 28.429 28.9363 27.5755 28.0157C27.0427 27.4082 26.6494 26.6914 26.423 25.9157C26.2542 25.0295 26.2293 24.1218 26.3491 23.2277C26.796 21.1344 28.3651 19.6728 30.6566 19.2394C31.7168 19.1082 32.7906 19.1374 33.8421 19.3261C33.8437 19.3264 33.8453 19.3252 33.8453 19.3234ZM23.987 21.0806C23.987 22.0307 23.2168 22.801 22.2667 22.801H19.2154C18.8389 22.801 18.5338 23.1061 18.5338 23.4826V36.4006C18.5338 37.4685 17.668 38.3342 16.6001 38.3342C15.5321 38.3342 14.6664 37.4685 14.6664 36.4006V23.4809C14.6664 23.1035 14.3605 22.7976 13.9831 22.7976H10.8797C9.95184 22.7976 9.19968 22.0454 9.19968 21.1176C9.17093 19.9845 9.84733 19.3631 10.9808 19.3567C12.3432 19.349 14.3826 19.3465 16.6387 19.3502H22.2364C23.1953 19.3502 23.9759 20.1217 23.987 21.0806Z" fill="#4285F4"/>
</svg>
