<svg width="26" height="62" viewBox="0 0 26 62" fill="none" xmlns="http://www.w3.org/2000/svg">
<path d="M1.73959 22.7057C1.34653 26.5694 1.16293 30.5036 1.07015 34.3858C1.00326 37.1886 0.667313 40.4542 2.40365 42.8668C4.07753 45.1916 7.12778 45.6729 9.77378 46.0079C12.722 46.3824 16.24 46.7013 19.0209 45.4137C21.5468 44.2433 22.5302 41.7438 23.2509 39.2262C24.1928 35.9298 24.602 32.611 24.5112 29.1827C24.3588 23.3902 23.5956 17.3487 17.6059 14.8264C11.6039 12.2977 4.6209 15.1238 2.00215 21.0736C1.79317 21.5482 1.79317 21.9774 1.92305 22.3333C1.82784 22.4154 1.75669 22.5387 1.73959 22.7057ZM4.81184 22.2565C7.10046 16.527 14.9178 14.4923 19.4643 18.9386C21.6445 21.071 21.811 24.4245 21.9751 27.2838C22.1758 30.76 22.0478 34.194 21.1343 37.5695C20.7739 38.904 20.4541 40.3815 19.708 41.5626C18.7461 43.0846 17.2006 43.5777 15.4756 43.7183C12.5059 43.9591 8.38676 43.8912 5.70801 42.4248C2.79739 40.8296 3.49851 36.461 3.40476 33.6983C3.28855 30.214 3.14158 26.694 2.8115 23.2208C3.51512 23.4923 4.40659 23.2711 4.81184 22.2565Z" fill="#9D5C63" stroke="#9D5C63"/>
<path d="M6.54953 56.7507C6.76633 56.9563 6.9841 57.1589 7.19602 57.3689C7.71164 57.8811 8.2048 58.4099 8.65652 58.9787C9.57742 60.1428 10.5451 61.4152 12.0881 61.7346C13.4773 62.0198 14.5261 61.3699 15.2336 60.2116C16.1868 58.6491 17.2449 56.9176 17.9714 55.2351C18.343 54.3772 17.257 53.7077 16.7033 54.4944C16.0221 55.4617 15.2038 56.3191 14.4543 57.2341C14.3302 54.7893 14.1603 52.2893 13.6579 49.9393C13.3776 48.6258 11.3776 48.9563 11.361 50.2498C11.3307 52.6624 11.0578 55.2386 11.2321 57.7039C11.1906 57.6429 11.152 57.5863 11.1178 57.5408C10.2175 56.3084 9.08322 54.475 7.59935 53.909C6.0276 53.3103 4.96897 55.8577 6.45531 56.6233C6.0559 56.4173 6.43967 56.6472 6.54953 56.7507Z" fill="#9D5C63"/>
<path d="M18.4909 4.86569C18.0285 4.30368 17.6183 3.71823 17.2291 3.10444C16.4435 1.8642 15.526 0.516064 14.0231 0.107314C12.5236 -0.299423 11.4328 0.497453 10.6335 1.69769C9.65548 3.16207 8.46263 4.55219 7.61638 6.09856C7.23211 6.8012 8.20721 7.64594 8.76922 6.98773C9.55047 6.07367 10.5167 5.34323 11.3478 4.47748C11.2331 6.83098 11.1555 9.24898 11.4108 11.5351C11.5788 13.0346 13.5827 13.0395 13.7492 11.5351C14.0085 9.2001 14.5588 6.6816 14.6213 4.2646C15.3581 5.52685 16.301 7.61085 17.631 8.27485C19.3385 9.12544 20.7443 6.75585 19.13 5.70898C19.4992 5.94775 18.652 5.06246 18.4909 4.86569Z" fill="#9D5C63"/>
<path d="M12.273 28.3606L12.2735 28.3613C12.349 28.4571 12.5142 28.5142 12.7493 28.3759C12.9866 28.2362 13.0272 28.0524 12.9827 27.9362C12.9827 27.9361 12.9827 27.9361 12.9827 27.9361L12.9941 27.9317C12.9807 27.8449 12.9732 27.7199 12.9965 27.5767C13.0162 27.4533 13.0261 27.3508 13.0372 27.2351C13.0455 27.149 13.0544 27.0557 13.0686 26.9411L13.069 26.9381L13.069 26.9381C13.1309 26.4635 13.1677 25.9914 13.2059 25.5024C13.2155 25.379 13.2252 25.2545 13.2354 25.1286L12.273 28.3606ZM12.273 28.3606C12.0073 28.0246 11.8637 27.5083 11.7922 26.8755C11.7447 26.4556 11.733 26.0471 11.7216 25.65C11.7157 25.4416 11.7098 25.2363 11.6989 25.0341M12.273 28.3606L13.5225 22.4501M13.5225 22.4501L13.5094 22.3922C13.4068 21.9401 12.918 21.6004 12.3687 21.7203L12.3686 21.7203C12.103 21.7782 11.9455 21.9065 11.8359 22.0806C11.7152 22.2722 11.6389 22.5436 11.6058 22.8899C11.5576 23.3946 11.6054 23.9212 11.6503 24.4171C11.6696 24.6298 11.6884 24.8369 11.6989 25.0341M13.5225 22.4501L13.523 22.4574L13.5256 22.4749C13.5305 22.5087 13.5327 22.5448 13.5318 22.5859L13.5314 22.6042L13.5323 22.6226C13.5413 22.7992 13.541 22.9195 13.513 23.0635L13.5225 22.4501ZM11.6989 25.0341C11.6989 25.0341 11.6989 25.034 11.6989 25.0339L11.1996 25.0609L11.6989 25.0344C11.6989 25.0343 11.6989 25.0342 11.6989 25.0341ZM13.4072 23.381C13.4156 23.3383 13.4278 23.3061 13.4311 23.2973L13.4313 23.2968C13.4366 23.2828 13.4416 23.2712 13.4441 23.2655C13.4482 23.2563 13.4533 23.2453 13.4557 23.2401C13.4561 23.2392 13.4564 23.2386 13.4567 23.238C13.4625 23.2256 13.4679 23.2137 13.4738 23.1989C13.4854 23.1701 13.501 23.1253 13.513 23.0636L13.4072 23.381ZM13.4072 23.381C13.3209 23.8205 13.2908 24.2936 13.2636 24.7199C13.2545 24.8622 13.2458 24.9994 13.2354 25.1283L13.4072 23.381Z" fill="#9D5C63" stroke="#9D5C63"/>
<path d="M13.4934 27.8832C13.4983 27.9061 13.5012 27.9081 13.4934 27.8832V27.8832Z" fill="#9D5C63"/>
</svg>
