<svg width="55" height="54" viewBox="0 0 55 54" fill="none" xmlns="http://www.w3.org/2000/svg">
<g filter="url(#filter0_dd_552_201)">
<path d="M5.5 15C5.5 12.0826 6.65892 9.28472 8.72182 7.22182C10.7847 5.15892 13.5826 4 16.5 4H38.5C41.4174 4 44.2153 5.15892 46.2782 7.22182C48.3411 9.28472 49.5 12.0826 49.5 15V37C49.5 39.9174 48.3411 42.7153 46.2782 44.7782C44.2153 46.8411 41.4174 48 38.5 48H16.5C13.5826 48 10.7847 46.8411 8.72182 44.7782C6.65892 42.7153 5.5 39.9174 5.5 37V15Z" stroke="#9D5C63" stroke-opacity="0.8" stroke-width="1.375" stroke-linecap="round" stroke-linejoin="round"/>
<path d="M19.25 26C19.25 28.188 20.1192 30.2865 21.6664 31.8336C23.2135 33.3808 25.312 34.25 27.5 34.25C29.688 34.25 31.7865 33.3808 33.3336 31.8336C34.8808 30.2865 35.75 28.188 35.75 26C35.75 23.812 34.8808 21.7135 33.3336 20.1664C31.7865 18.6192 29.688 17.75 27.5 17.75C25.312 17.75 23.2135 18.6192 21.6664 20.1664C20.1192 21.7135 19.25 23.812 19.25 26Z" stroke="#9D5C63" stroke-opacity="0.8" stroke-width="1.375" stroke-linecap="round" stroke-linejoin="round"/>
<path d="M39.875 13.625V13.6534" stroke="#9D5C63" stroke-opacity="0.8" stroke-width="1.375" stroke-linecap="round" stroke-linejoin="round"/>
</g>
<defs>
<filter id="filter0_dd_552_201" x="0.8125" y="0.3125" width="53.375" height="53.375" filterUnits="userSpaceOnUse" color-interpolation-filters="sRGB">
<feFlood flood-opacity="0" result="BackgroundImageFix"/>
<feColorMatrix in="SourceAlpha" type="matrix" values="0 0 0 0 0 0 0 0 0 0 0 0 0 0 0 0 0 0 127 0" result="hardAlpha"/>
<feMorphology radius="1" operator="dilate" in="SourceAlpha" result="effect1_dropShadow_552_201"/>
<feOffset dy="1"/>
<feGaussianBlur stdDeviation="1.5"/>
<feColorMatrix type="matrix" values="0 0 0 0 0 0 0 0 0 0 0 0 0 0 0 0 0 0 0.15 0"/>
<feBlend mode="normal" in2="BackgroundImageFix" result="effect1_dropShadow_552_201"/>
<feColorMatrix in="SourceAlpha" type="matrix" values="0 0 0 0 0 0 0 0 0 0 0 0 0 0 0 0 0 0 127 0" result="hardAlpha"/>
<feOffset dy="1"/>
<feGaussianBlur stdDeviation="1"/>
<feColorMatrix type="matrix" values="0 0 0 0 0 0 0 0 0 0 0 0 0 0 0 0 0 0 0.3 0"/>
<feBlend mode="normal" in2="effect1_dropShadow_552_201" result="effect2_dropShadow_552_201"/>
<feBlend mode="normal" in="SourceGraphic" in2="effect2_dropShadow_552_201" result="shape"/>
</filter>
</defs>
</svg>
