<svg width="23" height="33" viewBox="0 0 23 33" fill="none" xmlns="http://www.w3.org/2000/svg">
<path d="M16.2352 -2.28882e-05C18.308 -2.28882e-05 20.2995 0.37896 22.1527 1.12552C22.667 1.33397 23.0023 1.83446 22.9996 2.38898C22.997 2.9435 22.6559 3.44165 22.1393 3.6417C16.9088 5.68225 13.5289 10.6257 13.5289 16.2351C13.5289 21.8445 16.9084 26.7876 22.1393 28.8285C22.6562 29.0315 22.9973 29.5293 23 30.0812C23.0027 30.6357 22.6673 31.1365 22.1531 31.3446C20.2995 32.0918 18.308 32.4705 16.2352 32.4705C7.28104 32.4705 -9.53674e-06 25.1891 -9.53674e-06 16.2353C0.000326157 7.28205 7.28172 0.000152588 16.2352 0.000152588V-2.28882e-05ZM17.9263 2.80859C17.3718 2.74078 16.8089 2.70587 16.2352 2.70587C8.77523 2.70587 2.706 8.77518 2.706 16.2351C2.70634 23.6947 8.77531 29.7642 16.2352 29.7642C16.8088 29.7642 17.3745 29.729 17.929 29.6615C13.5239 26.6905 10.8234 21.7279 10.8234 16.2346C10.8234 10.742 13.5239 5.77922 17.9262 2.80854L17.9263 2.80859Z" fill="#9D5C63"/>
</svg>
