<svg width="40" height="40" viewBox="0 0 40 40" fill="none" xmlns="http://www.w3.org/2000/svg">
<path d="M26.765 20C26.765 18.2055 26.0524 16.485 24.7835 15.2164C23.5149 13.9478 21.7943 13.2349 20.0002 13.2349C18.2057 13.2349 16.4852 13.9478 15.2166 15.2164C13.948 16.485 13.2351 18.2056 13.2351 20C13.2351 21.7941 13.948 23.5147 15.2166 24.7834C16.4852 26.0523 18.2058 26.7648 20.0002 26.7648C21.7937 26.763 23.5131 26.0495 24.7814 24.7812C26.0496 23.5128 26.7632 21.7935 26.765 20ZM20.0002 25.535C18.532 25.535 17.1242 24.9518 16.0863 23.9139C15.0481 22.8757 14.4649 21.4679 14.4649 20C14.4649 18.5318 15.0481 17.1241 16.0863 16.0861C17.1242 15.0479 18.532 14.4647 20.0002 14.4647C21.4681 14.4647 22.8759 15.0479 23.9141 16.0861C24.952 17.124 25.5352 18.5318 25.5352 20C25.5334 21.4673 24.9499 22.8741 23.9123 23.912C22.8744 24.9496 21.4675 25.5331 20.0003 25.5349L20.0002 25.535Z" fill="#9D5C63" stroke="#9D5C63"/>
<path d="M19.3845 4.0094V8.92948C19.3845 9.26914 19.6601 9.54471 19.9998 9.54471C20.3394 9.54471 20.6147 9.26914 20.6147 8.92948V4.0094C20.6147 3.66974 20.3394 3.39447 19.9998 3.39447C19.6601 3.39447 19.3845 3.66974 19.3845 4.0094Z" fill="#9D5C63" stroke="#9D5C63"/>
<path d="M19.3845 31.0703V35.9904C19.3845 36.3301 19.6601 36.6053 19.9998 36.6053C20.3394 36.6053 20.6147 36.3301 20.6147 35.9904V31.0703C20.6147 30.7306 20.3394 30.4554 19.9998 30.4554C19.6601 30.4554 19.3845 30.7306 19.3845 31.0703Z" fill="#9D5C63" stroke="#9D5C63"/>
<path d="M4.00946 20.6149H8.92954C9.2692 20.6149 9.54477 20.3396 9.54477 19.9999C9.54477 19.6603 9.2692 19.3847 8.92954 19.3847H4.00946C3.6698 19.3847 3.39453 19.6603 3.39453 19.9999C3.39453 20.3396 3.6698 20.6149 4.00946 20.6149Z" fill="#9D5C63" stroke="#9D5C63"/>
<path d="M35.9898 19.3844H31.0698C30.7301 19.3844 30.4548 19.66 30.4548 19.9996C30.4548 20.3393 30.7301 20.6146 31.0698 20.6146H35.9898C36.3295 20.6146 36.6048 20.3393 36.6048 19.9996C36.6048 19.66 36.3295 19.3844 35.9898 19.3844Z" fill="#9D5C63" stroke="#9D5C63"/>
<path d="M12.6079 11.7375L9.1286 8.25825C8.88721 8.02509 8.5036 8.02845 8.26649 8.26588C8.02906 8.503 8.02571 8.8866 8.25886 9.12799L11.7382 12.6073C11.9792 12.8404 12.3629 12.8371 12.6003 12.6C12.8374 12.3628 12.8407 11.9792 12.6076 11.7379L12.6079 11.7375Z" fill="#9D5C63" stroke="#9D5C63"/>
<path d="M27.3923 27.3922C27.1521 27.6324 27.1521 28.0215 27.3923 28.2616L30.8716 31.7409H30.8713C31.1127 31.9741 31.4963 31.9707 31.7334 31.7333C31.9708 31.4962 31.9742 31.1126 31.741 30.8712L28.2623 27.3922C28.147 27.2769 27.9904 27.2119 27.8272 27.2119C27.6639 27.2119 27.5076 27.2768 27.3923 27.3922Z" fill="#9D5C63" stroke="#9D5C63"/>
<path d="M31.7416 8.25862C31.5014 8.01845 31.1123 8.01845 30.8722 8.25862L27.3925 11.7379C27.2738 11.8524 27.2061 12.0098 27.2049 12.1749C27.2033 12.3397 27.2683 12.4984 27.3849 12.615C27.5015 12.7316 27.6602 12.7966 27.825 12.795C27.9901 12.7938 28.1475 12.7261 28.262 12.6074L31.7413 9.12807V9.12838C31.9815 8.88821 31.9818 8.49881 31.7416 8.25862Z" fill="#9D5C63" stroke="#9D5C63"/>
<path d="M11.7377 27.3922L8.25837 30.8718C8.02521 31.1129 8.02857 31.4965 8.266 31.7339C8.50313 31.971 8.88673 31.9744 9.12811 31.7412L12.6074 28.2623C12.8406 28.0209 12.8372 27.6373 12.6001 27.4002C12.363 27.1627 11.9794 27.1594 11.738 27.3925L11.7377 27.3922Z" fill="#9D5C63" stroke="#9D5C63"/>
</svg>
